<?xml version="1.0" encoding="utf-8"?>
<!-- Generator: Adobe Illustrator 26.0.2, SVG Export Plug-In . SVG Version: 6.00 Build 0)  -->
<svg version="1.1" id="Layer_1" xmlns="http://www.w3.org/2000/svg" xmlns:xlink="http://www.w3.org/1999/xlink" x="0px" y="0px"
	 viewBox="0 0 496 498" style="enable-background:new 0 0 496 498;" xml:space="preserve">
<style type="text/css">
	.st0{fill:#A52A2A;}
	.st1{fill:none;}
</style>
<g>
	<path class="st0" d="M496,248C496,111,385,0,248,0S0,111,0,248c0,47.1,13.1,91.1,35.9,128.6C22.5,348.7,15,317.5,15,284.5
		C15,166.8,110.8,71,228.5,71c104.4,0,191.5,75.3,209.9,174.4c2.4,11.2,3.6,22.7,3.6,34.6c0,0.8,0,1.5,0,2.2c0,0.8,0,1.5,0,2.3
		c0,107.1-79.3,196.1-182.3,211.2C391.2,489.6,496,381.1,496,248z"/>
	<path class="st0" d="M273.5,448C180.6,448,105,372.6,105,280c0-55.6,27.2-104.9,69-135.5c10-8,21.3-14.5,33.5-19.1
		c20.3-8.6,42.6-13.4,66-13.4c31.5,0,61,8.7,86.3,23.8c-35-30.9-81-49.8-131.3-49.8C119,86,30,175,30,284.5S119,483,228.5,483
		c64.4,0,121.7-30.8,158-78.5C356.6,431.5,316.9,448,273.5,448z"/>
	<path class="st0" d="M299.5,129.2c41,19.2,69.5,61,69.5,109.3c0,66.4-53.8,120.5-120,120.5c-66.2,0-120-54.1-120-120.5
		c0-3.9,0.2-7.8,0.6-11.7c-6.2,16.6-9.6,34.5-9.6,53.2c0,84.4,68.9,153,153.5,153c83.9,0,152.3-67.4,153.5-150.8
		c-0.1-11.5-1.2-22.8-3.3-33.8C410.8,187.5,361.4,139.8,299.5,129.2z"/>
	<path class="st0" d="M144,238.5c0,54.6,41.5,99.6,94.4,105C207.1,330.5,185,299.8,185,264c0-47.4,38.8-86,86.5-86
		c38.6,0,71.4,25.3,82.5,60.1c-0.2-58-47.2-105.1-105-105.1c-12.6,0-24.7,2.2-35.9,6.4c-10.7,4.6-20.7,10.3-29.9,17
		C159.3,175.8,144,205.4,144,238.5z"/>
	<path class="st0" d="M200,264c0,39.1,32.1,71,71.5,71c39.4,0,71.5-31.9,71.5-71c0-25.1-13.2-47.2-33.1-59.9
		c5.1,8.1,8.1,17.6,8.1,27.9c0,28.7-23.3,52-52,52s-52-23.3-52-52c0-4.1,0.5-8.1,1.4-11.9C205.8,232.2,200,247.4,200,264z"/>
	<circle class="st0" cx="266" cy="232" r="37"/>
	<path class="st1" d="M442,284.5c0-0.8,0-1.5,0-2.3c0-0.7,0-1.5,0-2.2c0-11.9-1.2-23.4-3.6-34.6C420,146.3,332.9,71,228.5,71
		C110.8,71,15,166.8,15,284.5c0,33,7.5,64.2,20.9,92.1C70.4,448.4,143.7,498,228.5,498c10.6,0,21-0.8,31.2-2.3
		C362.7,480.6,442,391.6,442,284.5z M228.5,483C119,483,30,394,30,284.5S119,86,228.5,86c50.3,0,96.3,18.8,131.3,49.8
		C334.5,120.7,305,112,273.5,112c-23.4,0-45.7,4.8-66,13.4c-12.2,4.5-23.5,11-33.5,19.1c-41.8,30.6-69,79.9-69,135.5
		c0,92.6,75.6,168,168.5,168c43.4,0,83.1-16.5,113-43.5C350.2,452.2,292.9,483,228.5,483z M427,282.2
		C425.8,365.6,357.4,433,273.5,433C188.9,433,120,364.4,120,280c0-18.7,3.4-36.6,9.6-53.2c-0.4,3.8-0.6,7.7-0.6,11.7
		c0,66.4,53.8,120.5,120,120.5c66.2,0,120-54.1,120-120.5c0-48.3-28.5-90.1-69.5-109.3c61.9,10.6,111.3,58.3,124.2,119.2
		C425.7,259.4,426.8,270.7,427,282.2z M249,133c57.8,0,104.8,47.1,105,105.1c-11.1-34.8-43.9-60.1-82.5-60.1
		c-47.7,0-86.5,38.6-86.5,86c0,35.8,22.1,66.5,53.4,79.5c-53-5.3-94.4-50.4-94.4-105c0-33.1,15.3-62.7,39.1-82.1
		c9.3-6.7,19.3-12.5,29.9-17C224.3,135.2,236.4,133,249,133z M266,284c28.7,0,52-23.3,52-52c0-10.2-3-19.8-8.1-27.9
		c19.9,12.6,33.1,34.7,33.1,59.9c0,39.1-32.1,71-71.5,71c-39.4,0-71.5-31.9-71.5-71c0-16.6,5.8-31.8,15.4-43.9
		c-0.9,3.8-1.4,7.8-1.4,11.9C214,260.7,237.3,284,266,284z M229,232c0-20.4,16.6-37,37-37c20.4,0,37,16.6,37,37
		c0,20.4-16.6,37-37,37C245.6,269,229,252.4,229,232z"/>
</g>
</svg>
